<svg id="svg" version="1.1" xmlns="http://www.w3.org/2000/svg" xmlns:xlink="http://www.w3.org/1999/xlink" width="400" height="866.1333333333333" viewBox="0, 0, 400,866.1333333333333"><g id="svgg"><path id="path0" d="M254.124 3.500 C 254.393 7.746,255.831 16.142,256.744 18.800 C 256.933 19.350,257.406 20.880,257.796 22.200 C 258.186 23.520,258.764 25.230,259.080 26.000 C 259.396 26.770,259.795 27.760,259.966 28.200 C 261.536 32.221,268.235 44.336,269.588 45.600 C 269.705 45.710,270.881 47.148,272.201 48.796 C 274.375 51.511,288.682 65.983,298.073 74.965 C 300.123 76.926,309.900 86.480,319.800 96.196 C 329.700 105.912,340.318 116.278,343.395 119.231 C 355.650 130.991,359.000 134.339,361.775 137.600 C 365.250 141.683,369.535 147.417,370.144 148.800 C 370.386 149.350,370.706 149.891,370.856 150.001 C 371.203 150.258,375.270 158.215,375.983 160.030 C 376.278 160.784,376.741 161.940,377.011 162.600 C 381.043 172.448,383.237 186.696,382.661 199.296 C 382.106 211.451,382.353 259.090,382.996 264.000 C 383.881 270.751,385.509 278.056,386.784 281.000 C 386.975 281.440,387.701 283.240,388.397 285.000 C 391.093 291.810,398.385 304.316,399.700 304.384 C 399.865 304.393,400.000 235.910,400.000 152.200 L 400.000 0.000 326.951 0.000 L 253.902 0.000 254.124 3.500 " stroke="none" fill="#43cff4" fill-rule="evenodd"></path><path id="path1" d="M220.613 1.700 C 220.223 2.635,219.750 3.760,219.561 4.200 C 218.670 6.278,217.089 11.927,216.259 16.000 C 214.103 26.572,213.931 34.120,215.564 46.600 C 215.998 49.921,217.480 55.746,218.869 59.600 C 219.306 60.810,219.757 62.160,219.872 62.600 C 220.067 63.344,220.629 64.624,222.773 69.200 C 223.237 70.190,224.150 71.900,224.803 73.000 C 225.456 74.100,226.114 75.270,226.265 75.600 C 226.715 76.578,231.548 83.548,232.304 84.309 C 232.687 84.694,233.720 85.899,234.600 86.985 C 236.121 88.864,238.377 91.239,252.821 106.170 C 256.242 109.706,260.112 113.749,261.421 115.154 C 262.729 116.558,265.960 119.912,268.600 122.607 C 271.240 125.301,276.460 130.710,280.200 134.627 C 283.940 138.543,289.117 143.936,291.704 146.610 C 294.291 149.285,297.141 152.266,298.038 153.236 C 299.916 155.269,306.400 163.794,306.400 164.231 C 306.400 164.392,306.805 165.081,307.300 165.762 C 307.795 166.443,308.830 168.260,309.600 169.800 C 310.370 171.340,311.135 172.660,311.300 172.733 C 311.465 172.807,311.600 173.172,311.600 173.544 C 311.600 173.917,311.838 174.577,312.129 175.011 C 312.420 175.445,312.897 176.430,313.189 177.200 C 313.481 177.970,313.933 179.140,314.194 179.800 C 315.574 183.292,316.023 184.780,317.208 189.800 C 317.676 191.780,318.302 194.390,318.600 195.600 C 318.898 196.810,319.430 199.150,319.782 200.800 C 320.135 202.450,320.615 204.700,320.850 205.800 C 321.085 206.900,321.530 208.802,321.839 210.026 C 322.147 211.251,322.400 212.725,322.400 213.303 C 322.400 213.880,322.580 214.464,322.800 214.600 C 323.020 214.736,323.200 215.216,323.200 215.666 C 323.200 216.521,324.143 221.045,324.895 223.800 C 325.135 224.680,325.466 226.210,325.630 227.200 C 325.794 228.190,326.234 230.260,326.607 231.800 C 326.980 233.340,327.408 235.411,327.559 236.402 C 327.709 237.393,327.952 238.399,328.100 238.639 C 328.248 238.878,328.545 240.047,328.761 241.237 C 328.977 242.427,329.443 244.660,329.797 246.200 C 330.152 247.740,330.574 249.811,330.737 250.802 C 330.899 251.793,331.176 252.838,331.353 253.124 C 331.530 253.411,331.827 254.580,332.012 255.723 C 332.197 256.865,332.639 259.060,332.995 260.600 C 333.351 262.140,333.774 264.211,333.937 265.202 C 334.099 266.193,334.352 267.199,334.500 267.439 C 334.648 267.678,334.945 268.847,335.161 270.037 C 335.377 271.227,335.842 273.460,336.194 275.000 C 336.547 276.540,336.997 278.520,337.195 279.400 C 337.563 281.033,338.426 283.962,338.964 285.400 C 339.128 285.840,339.831 287.730,340.526 289.600 C 342.480 294.860,349.060 307.101,350.418 308.000 C 350.584 308.110,351.546 309.323,352.556 310.696 C 356.295 315.778,366.383 325.094,371.100 327.821 C 371.815 328.234,372.400 328.714,372.400 328.886 C 372.400 329.059,372.606 329.200,372.857 329.200 C 373.108 329.200,374.413 329.881,375.757 330.713 C 378.277 332.274,383.476 334.829,387.400 336.436 C 388.224 336.774,392.617 338.219,396.275 339.355 C 400.405 340.638,400.000 342.454,400.000 322.643 C 400.000 308.216,399.906 305.250,399.446 305.073 C 398.952 304.884,395.857 300.653,394.482 298.290 C 394.198 297.800,393.526 296.680,392.990 295.800 C 391.946 294.088,388.447 287.113,387.472 284.800 C 386.963 283.594,385.794 280.042,384.349 275.309 C 383.851 273.679,383.256 270.549,382.808 267.200 C 382.616 265.770,382.257 263.707,382.009 262.615 C 381.689 261.204,381.583 249.357,381.642 221.578 C 381.687 200.099,381.578 182.288,381.398 181.997 C 381.219 181.707,380.836 180.014,380.548 178.235 C 379.807 173.666,378.679 169.126,377.741 166.940 C 377.443 166.246,377.200 165.493,377.200 165.266 C 377.200 163.045,368.612 146.770,365.515 143.122 C 365.012 142.529,364.162 141.449,363.626 140.722 C 362.186 138.769,327.065 103.895,315.976 93.408 C 306.404 84.356,274.815 52.976,272.479 50.200 C 268.192 45.104,264.219 39.052,261.583 33.600 C 260.019 30.366,258.793 27.524,258.390 26.200 C 258.123 25.320,257.656 24.009,257.352 23.286 C 257.048 22.564,256.800 21.707,256.800 21.381 C 256.800 21.055,256.627 20.477,256.416 20.095 C 255.992 19.326,255.339 16.570,254.783 13.200 C 254.584 11.990,254.236 10.371,254.010 9.603 C 253.785 8.834,253.600 6.922,253.600 5.353 C 253.600 3.784,253.488 1.938,253.350 1.250 L 253.100 0.000 237.211 0.000 L 221.321 0.000 220.613 1.700 " stroke="none" fill="#d36cfb" fill-rule="evenodd"></path><path id="path2" d="M0.000 433.000 L 0.000 866.000 200.000 866.000 L 400.000 866.000 400.000 603.418 L 400.000 340.836 398.500 340.574 C 396.597 340.240,393.211 339.255,392.305 338.771 C 391.923 338.567,391.253 338.400,390.816 338.400 C 390.379 338.400,388.982 337.936,387.711 337.370 C 386.440 336.803,384.860 336.107,384.200 335.822 C 380.650 334.292,372.750 330.013,372.000 329.213 C 371.736 328.932,370.350 328.065,369.617 327.723 C 369.297 327.573,368.667 327.142,368.217 326.764 C 367.768 326.387,366.050 324.998,364.400 323.679 C 358.561 319.010,353.983 314.062,348.700 306.710 C 347.435 304.949,346.400 303.259,346.400 302.954 C 346.400 302.649,346.246 302.400,346.058 302.400 C 345.696 302.400,340.000 291.217,340.000 290.507 C 340.000 290.278,339.731 289.576,339.402 288.946 C 339.074 288.316,338.804 287.515,338.802 287.167 C 338.801 286.818,338.671 286.405,338.514 286.247 C 337.973 285.706,335.821 277.392,334.801 271.901 C 334.607 270.857,334.355 269.850,334.240 269.664 C 334.125 269.478,333.851 268.353,333.632 267.163 C 333.413 265.973,332.945 263.740,332.593 262.200 C 332.242 260.660,331.795 258.545,331.601 257.501 C 331.407 256.457,331.155 255.450,331.040 255.264 C 330.925 255.078,330.651 253.953,330.432 252.763 C 330.213 251.573,329.745 249.340,329.393 247.800 C 329.042 246.260,328.595 244.145,328.401 243.101 C 328.207 242.057,327.955 241.050,327.840 240.864 C 327.725 240.678,327.455 239.553,327.239 238.363 C 327.023 237.173,326.559 234.940,326.207 233.400 C 325.856 231.860,325.406 229.745,325.208 228.701 C 325.010 227.657,324.755 226.650,324.640 226.464 C 324.525 226.278,324.255 225.153,324.039 223.963 C 323.823 222.773,323.359 220.540,323.007 219.000 C 322.656 217.460,322.204 215.390,322.005 214.400 C 321.805 213.410,321.452 211.971,321.221 211.203 C 320.989 210.434,320.800 209.249,320.800 208.569 C 320.800 207.890,320.665 207.199,320.500 207.035 C 320.203 206.739,319.492 203.672,318.823 199.800 C 318.633 198.700,318.280 197.293,318.039 196.674 C 317.797 196.055,317.600 194.940,317.600 194.198 C 317.600 193.455,317.441 192.749,317.247 192.629 C 317.052 192.509,316.770 191.421,316.619 190.212 C 316.468 189.002,316.177 187.909,315.972 187.783 C 315.767 187.656,315.600 187.120,315.600 186.590 C 315.600 186.060,315.352 185.036,315.048 184.314 C 314.744 183.591,314.274 182.280,314.002 181.400 C 313.317 179.180,312.671 177.721,309.934 172.200 C 307.334 166.955,307.034 166.410,305.701 164.527 C 305.205 163.826,304.800 163.061,304.800 162.827 C 304.800 162.592,304.665 162.399,304.500 162.397 C 304.335 162.396,303.750 161.721,303.201 160.897 C 302.651 160.074,302.021 159.191,301.801 158.935 C 301.580 158.679,300.500 157.344,299.400 155.968 C 298.300 154.591,295.690 151.726,293.600 149.600 C 291.510 147.473,288.461 144.309,286.824 142.567 C 285.187 140.825,281.317 136.783,278.224 133.585 C 275.131 130.386,268.640 123.656,263.800 118.629 C 258.960 113.602,253.740 108.190,252.200 106.601 C 250.660 105.013,247.870 102.086,246.000 100.097 C 244.130 98.108,240.581 94.402,238.114 91.862 C 233.958 87.583,228.040 80.201,227.082 78.100 C 226.856 77.605,226.541 77.200,226.382 77.200 C 226.223 77.200,225.985 76.885,225.852 76.500 C 225.720 76.115,225.221 75.170,224.745 74.400 C 223.748 72.789,221.210 67.750,220.213 65.400 C 219.839 64.520,219.278 63.209,218.967 62.486 C 218.655 61.764,218.400 60.907,218.400 60.581 C 218.400 60.255,218.231 59.677,218.023 59.295 C 217.816 58.913,217.382 57.610,217.059 56.400 C 216.735 55.190,216.245 53.390,215.969 52.400 C 215.447 50.526,215.107 48.654,214.370 43.600 C 213.819 39.825,214.117 22.318,214.788 19.000 C 215.300 16.471,216.220 12.615,216.793 10.600 C 216.981 9.940,217.253 8.817,217.398 8.105 C 217.543 7.392,217.828 6.706,218.031 6.581 C 218.234 6.455,218.400 6.010,218.400 5.590 C 218.400 4.901,219.120 2.943,220.049 1.105 C 220.242 0.723,220.400 0.318,220.400 0.205 C 220.400 0.092,170.810 0.000,110.200 0.000 L 0.000 0.000 0.000 433.000 " stroke="none" fill="#fcfbfc" fill-rule="evenodd"></path><path id="path3" d="M220.123 0.900 C 218.854 3.671,218.400 4.907,218.400 5.590 C 218.400 6.010,218.234 6.455,218.031 6.581 C 217.828 6.706,217.543 7.392,217.398 8.105 C 217.253 8.817,216.981 9.940,216.793 10.600 C 216.220 12.615,215.300 16.471,214.788 19.000 C 214.117 22.318,213.819 39.825,214.370 43.600 C 215.107 48.654,215.447 50.526,215.969 52.400 C 216.245 53.390,216.735 55.190,217.059 56.400 C 217.382 57.610,217.816 58.913,218.023 59.295 C 218.231 59.677,218.400 60.255,218.400 60.581 C 218.400 60.907,218.655 61.764,218.967 62.486 C 219.278 63.209,219.839 64.520,220.213 65.400 C 221.210 67.750,223.748 72.789,224.745 74.400 C 225.221 75.170,225.720 76.115,225.852 76.500 C 225.985 76.885,226.223 77.200,226.382 77.200 C 226.541 77.200,226.856 77.605,227.082 78.100 C 228.040 80.201,233.958 87.583,238.114 91.862 C 240.581 94.402,244.130 98.108,246.000 100.097 C 247.870 102.086,250.660 105.013,252.200 106.601 C 253.740 108.190,258.960 113.602,263.800 118.629 C 268.640 123.656,275.131 130.386,278.224 133.585 C 281.317 136.783,285.187 140.825,286.824 142.567 C 288.461 144.309,291.510 147.473,293.600 149.600 C 295.690 151.726,298.300 154.591,299.400 155.968 C 300.500 157.344,301.580 158.679,301.801 158.935 C 302.021 159.191,302.651 160.074,303.201 160.897 C 303.750 161.721,304.335 162.396,304.500 162.397 C 304.665 162.399,304.800 162.592,304.800 162.827 C 304.800 163.061,305.205 163.826,305.701 164.527 C 307.937 167.687,312.853 177.680,314.002 181.400 C 314.274 182.280,314.744 183.591,315.048 184.314 C 315.352 185.036,315.600 186.060,315.600 186.590 C 315.600 187.120,315.767 187.656,315.972 187.783 C 316.177 187.909,316.468 189.002,316.619 190.212 C 316.770 191.421,317.052 192.509,317.247 192.629 C 317.441 192.749,317.600 193.455,317.600 194.198 C 317.600 194.940,317.797 196.055,318.039 196.674 C 318.280 197.293,318.633 198.700,318.823 199.800 C 319.492 203.672,320.203 206.739,320.500 207.035 C 320.665 207.199,320.800 207.890,320.800 208.569 C 320.800 209.249,320.989 210.434,321.221 211.203 C 321.452 211.971,321.805 213.410,322.005 214.400 C 322.204 215.390,322.656 217.460,323.007 219.000 C 323.359 220.540,323.823 222.773,324.039 223.963 C 324.255 225.153,324.525 226.278,324.640 226.464 C 324.755 226.650,325.010 227.657,325.208 228.701 C 325.406 229.745,325.856 231.860,326.207 233.400 C 326.559 234.940,327.023 237.173,327.239 238.363 C 327.455 239.553,327.725 240.678,327.840 240.864 C 327.955 241.050,328.207 242.057,328.401 243.101 C 328.595 244.145,329.042 246.260,329.393 247.800 C 329.745 249.340,330.213 251.573,330.432 252.763 C 330.651 253.953,330.925 255.078,331.040 255.264 C 331.155 255.450,331.407 256.457,331.601 257.501 C 331.795 258.545,332.242 260.660,332.593 262.200 C 332.945 263.740,333.413 265.973,333.632 267.163 C 333.851 268.353,334.125 269.478,334.240 269.664 C 334.355 269.850,334.607 270.857,334.801 271.901 C 335.821 277.392,337.973 285.706,338.514 286.247 C 338.671 286.405,338.801 286.818,338.802 287.167 C 338.804 287.515,339.074 288.316,339.402 288.946 C 339.731 289.576,340.000 290.278,340.000 290.507 C 340.000 291.217,345.696 302.400,346.058 302.400 C 346.246 302.400,346.400 302.649,346.400 302.954 C 346.400 303.511,349.883 308.553,352.290 311.479 C 355.492 315.373,356.358 316.338,358.800 318.731 C 361.019 320.906,362.807 322.425,368.231 326.739 C 369.306 327.593,370.445 328.336,371.200 328.673 C 371.530 328.821,371.890 329.051,372.000 329.184 C 372.626 329.942,380.509 334.231,384.200 335.822 C 384.860 336.107,386.440 336.803,387.711 337.370 C 388.982 337.936,390.379 338.400,390.816 338.400 C 391.253 338.400,391.923 338.567,392.305 338.771 C 394.301 339.837,400.000 341.057,400.000 340.418 C 400.000 340.188,399.629 340.000,399.175 340.000 C 398.355 340.000,396.923 339.594,391.200 337.737 C 387.831 336.644,387.552 336.536,384.200 335.009 C 379.385 332.817,378.154 332.190,375.757 330.709 C 374.413 329.879,373.108 329.200,372.857 329.200 C 372.606 329.200,372.400 329.059,372.400 328.886 C 372.400 328.714,371.815 328.234,371.100 327.821 C 366.383 325.094,356.295 315.778,352.556 310.696 C 351.546 309.323,350.584 308.110,350.418 308.000 C 349.060 307.101,342.480 294.860,340.526 289.600 C 339.831 287.730,339.128 285.840,338.964 285.400 C 338.426 283.962,337.563 281.033,337.195 279.400 C 336.997 278.520,336.547 276.540,336.194 275.000 C 335.842 273.460,335.377 271.227,335.161 270.037 C 334.945 268.847,334.648 267.678,334.500 267.439 C 334.352 267.199,334.099 266.193,333.937 265.202 C 333.774 264.211,333.351 262.140,332.995 260.600 C 332.639 259.060,332.197 256.865,332.012 255.723 C 331.827 254.580,331.530 253.411,331.353 253.124 C 331.176 252.838,330.899 251.793,330.737 250.802 C 330.574 249.811,330.152 247.740,329.797 246.200 C 329.443 244.660,328.977 242.427,328.761 241.237 C 328.545 240.047,328.248 238.878,328.100 238.639 C 327.952 238.399,327.709 237.393,327.559 236.402 C 327.408 235.411,326.980 233.340,326.607 231.800 C 326.234 230.260,325.794 228.190,325.630 227.200 C 325.466 226.210,325.135 224.680,324.895 223.800 C 324.143 221.045,323.200 216.521,323.200 215.666 C 323.200 215.216,323.020 214.736,322.800 214.600 C 322.580 214.464,322.400 213.880,322.400 213.303 C 322.400 212.725,322.147 211.251,321.839 210.026 C 321.530 208.802,321.085 206.900,320.850 205.800 C 320.615 204.700,320.135 202.450,319.782 200.800 C 319.430 199.150,318.898 196.810,318.600 195.600 C 318.302 194.390,317.676 191.780,317.208 189.800 C 316.023 184.780,315.574 183.292,314.194 179.800 C 313.933 179.140,313.481 177.970,313.189 177.200 C 312.897 176.430,312.420 175.445,312.129 175.011 C 311.838 174.577,311.600 173.917,311.600 173.544 C 311.600 173.172,311.465 172.807,311.300 172.733 C 311.135 172.660,310.370 171.340,309.600 169.800 C 308.830 168.260,307.795 166.443,307.300 165.762 C 306.805 165.081,306.400 164.392,306.400 164.231 C 306.400 163.794,299.916 155.269,298.038 153.236 C 297.141 152.266,294.291 149.285,291.704 146.610 C 289.117 143.936,283.940 138.543,280.200 134.627 C 276.460 130.710,271.240 125.301,268.600 122.607 C 265.960 119.912,262.729 116.558,261.421 115.154 C 260.112 113.749,256.242 109.706,252.821 106.170 C 238.377 91.239,236.121 88.864,234.600 86.985 C 233.720 85.899,232.687 84.694,232.304 84.309 C 231.548 83.548,226.715 76.578,226.265 75.600 C 226.114 75.270,225.456 74.100,224.803 73.000 C 224.150 71.900,223.237 70.190,222.773 69.200 C 220.629 64.624,220.067 63.344,219.872 62.600 C 219.757 62.160,219.306 60.810,218.869 59.600 C 217.480 55.746,215.998 49.921,215.564 46.600 C 214.284 36.816,214.162 27.574,215.231 21.400 C 216.250 15.516,217.237 11.306,218.653 6.800 C 219.227 4.973,219.377 4.582,220.545 1.886 C 221.441 -0.183,221.044 -1.111,220.123 0.900 " stroke="none" fill="#ecb6fc" fill-rule="evenodd"></path><path id="path4" d="M253.476 3.900 C 253.566 6.045,253.829 8.610,254.060 9.600 C 254.290 10.590,254.629 12.300,254.812 13.400 C 255.346 16.606,256.002 19.346,256.416 20.095 C 256.627 20.477,256.800 21.055,256.800 21.381 C 256.800 21.707,257.048 22.564,257.352 23.286 C 257.656 24.009,258.123 25.320,258.390 26.200 C 258.793 27.524,260.019 30.366,261.583 33.600 C 264.219 39.052,268.192 45.104,272.479 50.200 C 274.815 52.976,306.404 84.356,315.976 93.408 C 327.065 103.895,362.186 138.769,363.626 140.722 C 364.162 141.449,365.012 142.529,365.515 143.122 C 368.612 146.770,377.200 163.045,377.200 165.266 C 377.200 165.493,377.443 166.246,377.741 166.940 C 378.679 169.126,379.807 173.666,380.548 178.235 C 380.836 180.014,381.219 181.707,381.398 181.997 C 381.578 182.288,381.687 200.099,381.642 221.578 C 381.583 249.357,381.689 261.204,382.009 262.615 C 382.257 263.707,382.616 265.770,382.808 267.200 C 383.256 270.549,383.851 273.679,384.349 275.309 C 385.794 280.042,386.963 283.594,387.472 284.800 C 388.447 287.113,391.946 294.088,392.990 295.800 C 393.526 296.680,394.198 297.800,394.482 298.290 C 395.526 300.085,398.845 304.780,399.243 305.027 C 399.784 305.361,400.294 304.838,399.778 304.478 C 397.567 302.935,391.148 291.948,388.397 285.000 C 387.701 283.240,386.975 281.440,386.784 281.000 C 385.509 278.056,383.881 270.751,382.996 264.000 C 382.353 259.090,382.106 211.451,382.661 199.296 C 383.237 186.696,381.043 172.448,377.011 162.600 C 376.741 161.940,376.278 160.784,375.983 160.030 C 375.270 158.215,371.203 150.258,370.856 150.001 C 370.706 149.891,370.386 149.350,370.144 148.800 C 369.535 147.417,365.250 141.683,361.775 137.600 C 359.000 134.339,355.650 130.991,343.395 119.231 C 340.318 116.278,329.700 105.912,319.800 96.196 C 309.900 86.480,300.123 76.926,298.073 74.965 C 288.682 65.983,274.375 51.511,272.201 48.796 C 270.881 47.148,269.705 45.710,269.588 45.600 C 268.235 44.336,261.536 32.221,259.966 28.200 C 259.795 27.760,259.396 26.770,259.080 26.000 C 258.764 25.230,258.186 23.520,257.796 22.200 C 257.406 20.880,256.933 19.350,256.744 18.800 C 255.831 16.142,254.393 7.746,254.124 3.500 C 253.821 -1.285,253.272 -0.946,253.476 3.900 " stroke="none" fill="#949cf4" fill-rule="evenodd"></path></g></svg>